<svg width="20" height="20" viewBox="0 0 20 20" fill="none" xmlns="http://www.w3.org/2000/svg">
<path d="M10 0.25C8.07164 0.25 6.18657 0.821828 4.58319 1.89317C2.97982 2.96451 1.73013 4.48726 0.992179 6.26884C0.254225 8.05042 0.061142 10.0108 0.437348 11.9021C0.813554 13.7934 1.74215 15.5307 3.10571 16.8943C4.46928 18.2579 6.20656 19.1865 8.09787 19.5627C9.98919 19.9389 11.9496 19.7458 13.7312 19.0078C15.5127 18.2699 17.0355 17.0202 18.1068 15.4168C19.1782 13.8134 19.75 11.9284 19.75 10C19.7473 7.41498 18.7192 4.93661 16.8913 3.10872C15.0634 1.28084 12.585 0.25273 10 0.25ZM12.7806 10.5306L9.03063 14.2806C8.96095 14.3503 8.87822 14.4056 8.78718 14.4433C8.69613 14.481 8.59855 14.5004 8.5 14.5004C8.40146 14.5004 8.30388 14.481 8.21283 14.4433C8.12179 14.4056 8.03906 14.3503 7.96938 14.2806C7.8997 14.2109 7.84442 14.1282 7.80671 14.0372C7.769 13.9461 7.74959 13.8485 7.74959 13.75C7.74959 13.6515 7.769 13.5539 7.80671 13.4628C7.84442 13.3718 7.8997 13.2891 7.96938 13.2194L11.1897 10L7.96938 6.78063C7.82865 6.63989 7.74959 6.44902 7.74959 6.25C7.74959 6.05098 7.82865 5.86011 7.96938 5.71937C8.11011 5.57864 8.30098 5.49958 8.5 5.49958C8.69903 5.49958 8.8899 5.57864 9.03063 5.71937L12.7806 9.46937C12.8504 9.53903 12.9057 9.62175 12.9434 9.7128C12.9812 9.80384 13.0006 9.90144 13.0006 10C13.0006 10.0986 12.9812 10.1962 12.9434 10.2872C12.9057 10.3783 12.8504 10.461 12.7806 10.5306Z" fill="white"/>
</svg>
