<svg width="192" height="32" viewBox="0 0 192 32" fill="none" xmlns="http://www.w3.org/2000/svg">
<path d="M23.7787 16L26.8887 12.8887C27.4105 12.3805 27.8261 11.7737 28.1115 11.1036C28.3969 10.4334 28.5463 9.7133 28.5511 8.98495C28.5559 8.2566 28.416 7.53455 28.1395 6.86071C27.8629 6.18688 27.4553 5.57468 26.9403 5.05964C26.4253 4.54461 25.8131 4.13701 25.1392 3.86049C24.4654 3.58397 23.7433 3.44405 23.015 3.44885C22.2866 3.45365 21.5665 3.60306 20.8964 3.88843C20.2262 4.1738 19.6195 4.58943 19.1112 5.1112L16 8.2212L12.8887 5.1112C12.3805 4.58943 11.7738 4.1738 11.1036 3.88843C10.4335 3.60306 9.71334 3.45365 8.98499 3.44885C8.25664 3.44405 7.5346 3.58397 6.86076 3.86049C6.18692 4.13701 5.57472 4.54461 5.05969 5.05964C4.54466 5.57468 4.13705 6.18688 3.86054 6.86071C3.58402 7.53455 3.4441 8.2566 3.4489 8.98495C3.45369 9.7133 3.60311 10.4334 3.88848 11.1036C4.17384 11.7737 4.58947 12.3805 5.11125 12.8887L8.22125 16L5.11125 19.1112C4.58947 19.6194 4.17384 20.2262 3.88848 20.8963C3.60311 21.5665 3.45369 22.2866 3.4489 23.015C3.4441 23.7433 3.58402 24.4654 3.86054 25.1392C4.13705 25.813 4.54466 26.4252 5.05969 26.9403C5.57472 27.4553 6.18692 27.8629 6.86076 28.1394C7.5346 28.4159 8.25664 28.5558 8.98499 28.5511C9.71334 28.5463 10.4335 28.3968 11.1036 28.1115C11.7738 27.8261 12.3805 27.4105 12.8887 26.8887L16 23.7787L19.1112 26.8887C19.6195 27.4105 20.2262 27.8261 20.8964 28.1115C21.5665 28.3968 22.2866 28.5463 23.015 28.5511C23.7433 28.5558 24.4654 28.4159 25.1392 28.1394C25.8131 27.8629 26.4253 27.4553 26.9403 26.9403C27.4553 26.4252 27.8629 25.813 28.1395 25.1392C28.416 24.4654 28.5559 23.7433 28.5511 23.015C28.5463 22.2866 28.3969 21.5665 28.1115 20.8963C27.8261 20.2262 27.4105 19.6194 26.8887 19.1112L23.7787 16ZM21.2325 7.23245C21.4631 6.99367 21.739 6.80322 22.044 6.6722C22.349 6.54117 22.677 6.47221 23.009 6.46932C23.3409 6.46644 23.6701 6.52969 23.9774 6.6554C24.2846 6.7811 24.5638 6.96673 24.7985 7.20146C25.0332 7.43619 25.2188 7.71532 25.3446 8.02257C25.4703 8.32981 25.5335 8.659 25.5306 8.99095C25.5277 9.3229 25.4588 9.65095 25.3277 9.95596C25.1967 10.261 25.0063 10.5368 24.7675 10.7674L21.6562 13.875L18.125 10.3437L21.2325 7.23245ZM19.535 16L16 19.535L12.465 16L16 12.465L19.535 16ZM7.2325 10.7674C6.99372 10.5368 6.80326 10.261 6.67224 9.95596C6.54122 9.65095 6.47225 9.3229 6.46937 8.99095C6.46648 8.659 6.52974 8.32981 6.65544 8.02257C6.78114 7.71532 6.96678 7.43619 7.20151 7.20146C7.43624 6.96673 7.71537 6.7811 8.02261 6.6554C8.32985 6.52969 8.65905 6.46644 8.991 6.46932C9.32295 6.47221 9.651 6.54117 9.95601 6.6722C10.261 6.80322 10.5369 6.99367 10.7675 7.23245L13.875 10.3437L10.3437 13.875L7.2325 10.7674ZM10.7675 24.7675C10.5369 25.0062 10.261 25.1967 9.95601 25.3277C9.651 25.4587 9.32295 25.5277 8.991 25.5306C8.65905 25.5335 8.32985 25.4702 8.02261 25.3445C7.71537 25.2188 7.43624 25.0332 7.20151 24.7984C6.96678 24.5637 6.78114 24.2846 6.65544 23.9773C6.52974 23.6701 6.46648 23.3409 6.46937 23.0089C6.47225 22.677 6.54122 22.3489 6.67224 22.0439C6.80326 21.7389 6.99372 21.4631 7.2325 21.2325L10.3437 18.125L13.875 21.6562L10.7675 24.7675ZM24.7675 24.7675C24.2987 25.2361 23.6629 25.4994 23 25.4994C22.3371 25.4994 21.7013 25.2361 21.2325 24.7675L18.125 21.6562L21.6562 18.125L24.7675 21.2362C25.2362 21.705 25.4995 22.3408 25.4995 23.0037C25.4995 23.6666 25.2362 24.3024 24.7675 24.7712V24.7675Z" fill="#222222"/>
<path d="M58 7.7V24.5H54.712V13.604L49.984 21.404H49.6L44.872 13.628V24.5H41.56V7.7H44.968L49.792 15.644L54.592 7.7H58ZM63.6023 19.772C64.0183 21.276 65.1463 22.028 66.9863 22.028C68.1703 22.028 69.0663 21.628 69.6743 20.828L72.1703 22.268C70.9863 23.98 69.2423 24.836 66.9383 24.836C64.9543 24.836 63.3623 24.236 62.1623 23.036C60.9623 21.836 60.3623 20.324 60.3623 18.5C60.3623 16.692 60.9543 15.188 62.1383 13.988C63.3223 12.772 64.8423 12.164 66.6983 12.164C68.4583 12.164 69.9063 12.772 71.0423 13.988C72.1943 15.204 72.7703 16.708 72.7703 18.5C72.7703 18.9 72.7303 19.324 72.6503 19.772H63.6023ZM63.5543 17.372H69.6743C69.4983 16.556 69.1303 15.948 68.5703 15.548C68.0263 15.148 67.4023 14.948 66.6983 14.948C65.8663 14.948 65.1783 15.164 64.6343 15.596C64.0903 16.012 63.7303 16.604 63.5543 17.372ZM83.9339 7.7H87.0299V24.5H83.9339V23.084C83.0219 24.252 81.7259 24.836 80.0459 24.836C78.4299 24.836 77.0459 24.228 75.8939 23.012C74.7579 21.78 74.1899 20.276 74.1899 18.5C74.1899 16.724 74.7579 15.228 75.8939 14.012C77.0459 12.78 78.4299 12.164 80.0459 12.164C81.7259 12.164 83.0219 12.748 83.9339 13.916V7.7ZM78.2219 20.948C78.8619 21.572 79.6619 21.884 80.6219 21.884C81.5819 21.884 82.3739 21.572 82.9979 20.948C83.6219 20.308 83.9339 19.492 83.9339 18.5C83.9339 17.508 83.6219 16.7 82.9979 16.076C82.3739 15.436 81.5819 15.116 80.6219 15.116C79.6619 15.116 78.8619 15.436 78.2219 16.076C77.5979 16.7 77.2859 17.508 77.2859 18.5C77.2859 19.492 77.5979 20.308 78.2219 20.948ZM91.3973 11.06C90.8853 11.06 90.4373 10.876 90.0533 10.508C89.6853 10.124 89.5013 9.676 89.5013 9.164C89.5013 8.652 89.6853 8.204 90.0533 7.82C90.4373 7.436 90.8853 7.244 91.3973 7.244C91.9253 7.244 92.3733 7.436 92.7413 7.82C93.1253 8.204 93.3173 8.652 93.3173 9.164C93.3173 9.676 93.1253 10.124 92.7413 10.508C92.3733 10.876 91.9253 11.06 91.3973 11.06ZM89.8613 24.5V12.5H92.9573V24.5H89.8613ZM101.503 24.836C99.695 24.836 98.183 24.228 96.967 23.012C95.767 21.796 95.167 20.292 95.167 18.5C95.167 16.708 95.767 15.204 96.967 13.988C98.183 12.772 99.695 12.164 101.503 12.164C102.671 12.164 103.735 12.444 104.695 13.004C105.655 13.564 106.383 14.316 106.879 15.26L104.215 16.82C103.975 16.324 103.607 15.932 103.111 15.644C102.631 15.356 102.087 15.212 101.479 15.212C100.551 15.212 99.783 15.524 99.175 16.148C98.567 16.756 98.263 17.54 98.263 18.5C98.263 19.444 98.567 20.228 99.175 20.852C99.783 21.46 100.551 21.764 101.479 21.764C102.103 21.764 102.655 21.628 103.135 21.356C103.631 21.068 103.999 20.676 104.239 20.18L106.927 21.716C106.399 22.66 105.655 23.42 104.695 23.996C103.735 24.556 102.671 24.836 101.503 24.836ZM117.497 12.5H120.593V24.5H117.497V23.084C116.569 24.252 115.265 24.836 113.585 24.836C111.985 24.836 110.609 24.228 109.457 23.012C108.321 21.78 107.753 20.276 107.753 18.5C107.753 16.724 108.321 15.228 109.457 14.012C110.609 12.78 111.985 12.164 113.585 12.164C115.265 12.164 116.569 12.748 117.497 13.916V12.5ZM111.785 20.948C112.409 21.572 113.201 21.884 114.161 21.884C115.121 21.884 115.913 21.572 116.537 20.948C117.177 20.308 117.497 19.492 117.497 18.5C117.497 17.508 117.177 16.7 116.537 16.076C115.913 15.436 115.121 15.116 114.161 15.116C113.201 15.116 112.409 15.436 111.785 16.076C111.161 16.7 110.849 17.508 110.849 18.5C110.849 19.492 111.161 20.308 111.785 20.948ZM123.4 24.5V6.98H126.496V24.5H123.4ZM141.738 24.836C139.866 24.836 138.33 24.308 137.13 23.252C135.93 22.196 135.33 20.78 135.33 19.004V7.7H138.618V18.74C138.618 19.62 138.866 20.316 139.362 20.828C139.874 21.34 140.666 21.596 141.738 21.596C142.81 21.596 143.594 21.34 144.09 20.828C144.602 20.316 144.858 19.62 144.858 18.74V7.7H148.17V19.004C148.17 20.78 147.57 22.196 146.37 23.252C145.17 24.308 143.626 24.836 141.738 24.836ZM157.682 12.164C158.994 12.164 160.074 12.604 160.922 13.484C161.786 14.364 162.218 15.58 162.218 17.132V24.5H159.122V17.516C159.122 16.716 158.906 16.108 158.474 15.692C158.042 15.26 157.466 15.044 156.746 15.044C155.946 15.044 155.306 15.292 154.826 15.788C154.346 16.284 154.106 17.028 154.106 18.02V24.5H151.01V12.5H154.106V13.844C154.858 12.724 156.05 12.164 157.682 12.164ZM166.397 11.06C165.885 11.06 165.437 10.876 165.053 10.508C164.685 10.124 164.501 9.676 164.501 9.164C164.501 8.652 164.685 8.204 165.053 7.82C165.437 7.436 165.885 7.244 166.397 7.244C166.925 7.244 167.373 7.436 167.741 7.82C168.125 8.204 168.317 8.652 168.317 9.164C168.317 9.676 168.125 10.124 167.741 10.508C167.373 10.876 166.925 11.06 166.397 11.06ZM164.861 24.5V12.5H167.957V24.5H164.861ZM177.655 15.476H174.943V20.468C174.943 20.884 175.047 21.188 175.255 21.38C175.463 21.572 175.767 21.684 176.167 21.716C176.567 21.732 177.063 21.724 177.655 21.692V24.5C175.527 24.74 174.023 24.54 173.143 23.9C172.279 23.26 171.847 22.116 171.847 20.468V15.476H169.759V12.5H171.847V10.076L174.943 9.14V12.5H177.655V15.476ZM187.92 12.5H191.232L186.864 24.5C186.24 26.228 185.408 27.476 184.368 28.244C183.344 29.028 182.064 29.38 180.528 29.3V26.42C181.36 26.436 182.016 26.26 182.496 25.892C182.992 25.524 183.384 24.932 183.672 24.116L178.752 12.5H182.136L185.256 20.564L187.92 12.5Z" fill="#222222"/>
</svg>
